<?xml version="1.0" encoding="utf-8"?>
<svg xmlns="http://www.w3.org/2000/svg" viewBox="0 0 500 500">
  <path fill="#f0eff0" d="M 279.227 45.272 L 281.615 45.25 C 325.81 44.945 367.249 52.902 406.208 74.483 C 421.083 83.065 434.258 93.678 446.661 105.475 L 448.579 107.233 C 465.999 123.702 478.973 146.581 485.973 169.35 C 492.939 193.371 493.699 217.552 488.091 241.954 C 481.636 268.053 468.134 291.071 449.661 310.475 C 448.235 311.738 446.797 312.988 445.349 314.225 C 443.803 315.635 443.803 315.635 442.661 317.475 C 442.248 324.071 444.335 330.742 446.286 336.975 L 447.072 339.558 C 449.192 346.366 451.688 353 454.476 359.563 C 455.801 362.768 456.65 365.382 457.044 368.858 L 456.661 371.475 L 453.661 373.475 C 448.962 373.152 445.283 371.56 441.075 369.525 L 437.277 367.712 L 435.299 366.757 C 414.885 355.783 414.885 355.783 392.661 351.475 C 389.518 352.305 386.706 353.625 383.786 355.038 C 382.111 355.792 380.432 356.539 378.751 357.28 L 376.184 358.412 C 353.452 367.993 327.47 372.736 302.923 373.702 L 300.831 373.788 C 299.071 373.845 297.311 373.861 295.551 373.873 L 292.661 374.475 C 289.993 376.794 289.993 376.794 287.661 379.475 C 286.243 380.462 284.805 381.421 283.349 382.35 C 281.234 383.785 281.234 383.785 279.661 385.475 C 279.691 387.177 279.691 387.177 279.724 388.913 L 279.661 392.475 C 270.081 403.914 250.272 411.244 236.661 416.475 C 204.881 427.957 170.449 430.585 137.193 424.933 C 122.249 422.233 106.089 418.584 92.778 411.041 C 89.313 410.114 86.097 410.711 82.661 411.475 C 79.419 412.492 76.298 413.737 73.161 415.038 L 70.538 416.1 C 64.127 418.74 57.864 421.723 51.774 425.036 C 49.084 426.464 46.879 427.45 43.837 427.799 L 41.661 427.475 C 39.786 425.788 39.786 425.788 38.661 423.475 C 39.142 419.953 40.192 416.774 41.438 413.455 L 42.495 410.605 L 44.69 404.755 C 47.06 398.36 48.99 392.131 50.223 385.413 L 49.661 382.475 C 48.281 380.86 48.281 380.86 46.521 379.275 C 32.241 365.445 21.374 347.283 15.621 328.272 C 10.391 307.604 10.007 287.212 15.692 266.572 C 21.972 246.358 33.044 229.631 47.661 214.475 L 49.458 212.522 C 55.64 205.972 63.186 200.458 70.661 195.475 C 72.571 195.675 72.571 195.675 74.724 196.163 C 78.519 196.621 81.367 196.35 84.974 195.038 C 87.606 193.698 87.606 193.698 89.661 191.475 C 91.441 187.06 92.243 182.527 93.142 177.875 C 98.915 151.175 113.616 128.488 131.661 108.475 C 138.946 100.521 147.052 93.916 155.661 87.475 L 158.181 85.577 C 176.916 71.98 197.693 62.485 219.661 55.475 L 221.913 54.752 C 240.223 48.993 260.001 45.388 279.227 45.272" style="stroke-width: 1;"/>
  <path fill="#b2a3b1" d="M 279.227 45.272 L 281.615 45.25 C 325.81 44.945 367.249 52.902 406.208 74.483 C 421.083 83.065 434.258 93.678 446.661 105.475 L 448.579 107.233 C 465.999 123.702 478.973 146.581 485.973 169.35 C 492.939 193.371 493.699 217.552 488.091 241.954 C 481.636 268.053 468.134 291.071 449.661 310.475 C 448.235 311.738 446.797 312.988 445.349 314.225 C 443.803 315.635 443.803 315.635 442.661 317.475 C 442.248 324.071 444.335 330.742 446.286 336.975 L 447.072 339.558 C 449.192 346.366 451.688 353 454.476 359.563 C 455.801 362.768 456.65 365.382 457.044 368.858 L 456.661 371.475 L 453.661 373.475 C 448.962 373.152 445.283 371.56 441.075 369.525 L 437.277 367.712 L 435.299 366.757 C 414.885 355.783 414.885 355.783 392.661 351.475 C 389.518 352.305 386.706 353.625 383.786 355.038 C 382.111 355.792 380.432 356.539 378.751 357.28 L 376.184 358.412 C 353.452 367.993 327.47 372.736 302.923 373.702 L 300.831 373.788 C 299.071 373.845 297.311 373.861 295.551 373.873 L 292.661 374.475 C 289.993 376.794 289.993 376.794 287.661 379.475 C 286.243 380.462 284.805 381.421 283.349 382.35 C 281.234 383.785 281.234 383.785 279.661 385.475 C 279.691 387.177 279.691 387.177 279.724 388.913 L 279.661 392.475 C 270.081 403.914 250.272 411.244 236.661 416.475 C 204.881 427.957 170.449 430.585 137.193 424.933 C 122.249 422.233 106.089 418.584 92.778 411.041 C 89.313 410.114 86.097 410.711 82.661 411.475 C 79.419 412.492 76.298 413.737 73.161 415.038 L 70.538 416.1 C 64.127 418.74 57.864 421.723 51.774 425.036 C 49.084 426.464 46.879 427.45 43.837 427.799 L 41.661 427.475 C 39.786 425.788 39.786 425.788 38.661 423.475 C 39.142 419.953 40.192 416.774 41.438 413.455 L 42.495 410.605 L 44.69 404.755 C 47.06 398.36 48.99 392.131 50.223 385.413 L 49.661 382.475 C 48.281 380.86 48.281 380.86 46.521 379.275 C 32.241 365.445 21.374 347.283 15.621 328.272 C 10.391 307.604 10.007 287.212 15.692 266.572 C 21.972 246.358 33.044 229.631 47.661 214.475 L 49.458 212.522 C 55.64 205.972 63.186 200.458 70.661 195.475 C 72.571 195.675 72.571 195.675 74.724 196.163 C 78.519 196.621 81.367 196.35 84.974 195.038 C 87.606 193.698 87.606 193.698 89.661 191.475 C 91.441 187.06 92.243 182.527 93.142 177.875 C 98.915 151.175 113.616 128.488 131.661 108.475 C 138.946 100.521 147.052 93.916 155.661 87.475 L 158.181 85.577 C 176.916 71.98 197.693 62.485 219.661 55.475 L 221.913 54.752 C 240.223 48.993 260.001 45.388 279.227 45.272 M 241.661 60.475 L 238.571 61.206 C 212.553 67.536 187.467 77.772 165.661 93.475 L 162.599 95.67 C 139.839 112.572 121.629 133.652 110.192 159.737 C 101.419 180.651 98.677 202.415 100.912 225.008 C 101.548 229.568 102.54 234.008 103.661 238.475 L 104.282 241.291 C 110.175 265.849 124.24 286.674 141.182 304.926 C 145.962 309.939 151.177 314.249 156.661 318.475 L 159.501 320.827 C 177.956 335.79 201.154 347.854 224.248 353.603 C 227.615 354.463 230.93 355.439 234.258 356.436 C 252.996 361.791 272.102 362.853 291.473 362.85 L 294.013 362.855 C 322.125 362.849 350.439 358.032 376.184 346.471 C 383.786 343.065 390.427 340.308 398.95 340.795 C 413.147 343.395 426.636 350.484 439.661 356.475 L 440.661 353.475 C 440.171 351.222 440.171 351.222 439.263 348.799 L 438.309 346.039 L 437.286 343.162 C 433.84 333.369 431.134 323.981 432.661 313.475 C 434.442 310.188 436.922 307.983 439.661 305.475 C 456.267 288.175 470.084 267.485 476.102 244.041 C 477.372 238.872 478.559 233.683 479.661 228.475 L 480.21 226.035 C 483.533 207.188 480.701 185.256 474.224 167.346 C 463.673 140.684 447.078 117.896 424.69 99.89 C 406.218 85.423 385.757 75.176 363.661 67.475 L 361.092 66.577 C 341.922 60.027 321.307 56.42 301.036 56.237 L 298.32 56.207 C 279.113 56.039 260.438 55.937 241.661 60.475" style="stroke-width: 1;"/>
  <path fill="#4f1c59" d="M 296.661 85.475 C 300.391 86.741 302.316 88.179 305.286 90.725 C 307.929 93.785 310.244 96.675 311.661 100.475 C 312.391 104.979 311.952 109.237 310.661 113.6 C 308.934 117.704 306.125 120.26 302.794 123.127 C 300.661 124.475 300.661 124.475 295.661 125.475 L 295.661 146.475 L 302.903 146.335 C 336.063 145.825 336.063 145.825 349.661 150.475 L 353.001 151.608 C 366.428 156.721 378.167 165.488 387.278 176.568 C 391.411 181.935 395.004 187.237 397.661 193.475 L 397.661 195.475 L 399.497 195.335 C 405.373 195.081 409.91 195.804 415.282 198.225 C 422.319 201.922 426.71 206.375 431.216 212.913 C 433.955 217.769 434.968 222.173 435.036 227.725 C 434.902 235.059 433.063 240.393 429.376 246.659 C 425.766 251.977 421.355 255.532 415.661 258.475 C 409.595 260.967 404.187 261.838 397.661 261.475 L 396.845 264.155 C 393.207 274.359 385.599 283.227 377.661 290.475 C 366.479 299.691 352.814 306.929 338.489 309.569 C 329.956 310.919 321.406 310.784 312.789 310.776 L 307.352 310.789 C 303.571 310.796 299.79 310.796 296.008 310.791 C 291.196 310.785 286.385 310.801 281.573 310.825 C 277.834 310.84 274.096 310.841 270.358 310.838 C 268.585 310.838 266.813 310.843 265.04 310.853 C 254.82 310.905 245.558 310.377 235.661 307.475 L 231.821 306.405 C 218.151 301.75 206.607 293.955 196.661 283.475 C 191.441 277.268 186.847 270.955 183.661 263.475 L 183.661 261.475 L 179.849 261.725 C 173.093 261.704 167.231 259.5 161.395 256.19 C 155.441 252.11 152.034 246.826 148.625 240.577 C 146.297 235.442 146.17 230.241 146.305 224.663 C 146.823 220.021 148.313 216.472 150.661 212.475 L 152.474 209.288 C 157.124 203.308 162.658 199.327 169.661 196.475 C 174.219 195.073 178.933 195.382 183.661 195.475 L 183.942 193.33 C 186.078 184.844 193.385 177.108 199.266 170.846 C 209.655 160.56 221.462 152.78 235.661 149.037 C 243.223 147.188 250.462 146.324 258.22 146.377 L 260.611 146.382 C 263.107 146.387 265.603 146.4 268.099 146.412 C 269.801 146.417 271.503 146.422 273.206 146.426 C 277.358 146.436 281.509 146.456 285.661 146.475 L 285.661 125.475 L 280.661 124.475 C 276.981 122.149 273.766 119.279 271.481 115.549 C 269.768 111.479 269.013 107.253 269.188 102.842 C 270.151 98.022 272.6 94.254 275.661 90.475 C 281.571 84.498 288.664 84.525 296.661 85.475" style="stroke-width: 1;"/>
  <path fill="#4f1c59" d="M 279.227 45.272 L 281.615 45.25 C 325.81 44.945 367.249 52.902 406.208 74.483 C 421.083 83.065 434.258 93.678 446.661 105.475 L 448.579 107.233 C 465.999 123.702 478.973 146.581 485.973 169.35 C 492.939 193.371 493.699 217.552 488.091 241.954 C 481.636 268.053 468.134 291.071 449.661 310.475 C 448.235 311.738 446.797 312.988 445.349 314.225 C 443.803 315.635 443.803 315.635 442.661 317.475 C 442.248 324.071 444.335 330.742 446.286 336.975 L 447.072 339.558 C 449.192 346.366 451.688 353 454.476 359.563 C 455.801 362.768 456.65 365.382 457.044 368.858 L 456.661 371.475 L 453.661 373.475 C 448.962 373.152 445.283 371.56 441.075 369.525 L 437.277 367.712 L 435.299 366.757 C 414.885 355.783 414.885 355.783 392.661 351.475 C 389.518 352.305 386.706 353.625 383.786 355.038 C 382.111 355.792 380.432 356.539 378.751 357.28 L 376.184 358.412 C 340.701 373.368 298.176 377.234 260.127 372.825 C 244.995 370.86 230.129 367.293 215.661 362.475 L 213.599 361.801 C 183.455 351.783 157.546 335.218 134.661 313.475 L 132.595 311.604 C 117.083 297.064 105.863 278.06 98.379 258.348 C 97.757 256.741 97.113 255.142 96.446 253.553 C 93.198 245.463 92.002 237.043 90.661 228.475 L 90.142 225.608 C 87.172 206.257 89.882 186.983 95.661 168.475 L 96.389 166.122 C 104.391 141.086 120.275 119.188 138.931 100.948 C 144.251 96.13 149.917 91.773 155.661 87.475 L 158.181 85.577 C 176.916 71.98 197.693 62.485 219.661 55.475 L 221.913 54.752 C 240.223 48.993 260.001 45.388 279.227 45.272 M 241.661 60.475 L 238.571 61.206 C 212.553 67.536 187.467 77.772 165.661 93.475 L 162.599 95.67 C 139.839 112.572 121.629 133.652 110.192 159.737 C 101.419 180.651 98.677 202.415 100.912 225.008 C 101.548 229.568 102.54 234.008 103.661 238.475 L 104.282 241.291 C 110.175 265.849 124.24 286.674 141.182 304.926 C 145.962 309.939 151.177 314.249 156.661 318.475 L 159.501 320.827 C 177.956 335.79 201.154 347.854 224.248 353.603 C 227.615 354.463 230.93 355.439 234.258 356.436 C 252.996 361.791 272.102 362.853 291.473 362.85 L 294.013 362.855 C 322.125 362.849 350.439 358.032 376.184 346.471 C 383.786 343.065 390.427 340.308 398.95 340.795 C 413.147 343.395 426.636 350.484 439.661 356.475 L 440.661 353.475 C 440.171 351.222 440.171 351.222 439.263 348.799 L 438.309 346.039 L 437.286 343.162 C 433.84 333.369 431.134 323.981 432.661 313.475 C 434.442 310.188 436.922 307.983 439.661 305.475 C 456.267 288.175 470.084 267.485 476.102 244.041 C 477.372 238.872 478.559 233.683 479.661 228.475 L 480.21 226.035 C 483.533 207.188 480.701 185.256 474.224 167.346 C 463.673 140.684 447.078 117.896 424.69 99.89 C 406.218 85.423 385.757 75.176 363.661 67.475 L 361.092 66.577 C 341.922 60.027 321.307 56.42 301.036 56.237 L 298.32 56.207 C 279.113 56.039 260.438 55.937 241.661 60.475" style="stroke-width: 1;"/>
  <path fill="#e3ab32" d="M 209.661 239.475 C 211.903 241.556 213.371 243.557 214.849 246.225 C 218.072 251.46 222.096 255.483 227.481 258.492 C 233.664 261.532 238.887 262.048 245.713 261.992 L 248.95 262.014 C 252.456 262.031 255.963 262.02 259.47 262.006 L 266.825 262.018 C 271.955 262.023 277.085 262.016 282.215 261.996 C 288.773 261.974 295.33 261.986 301.888 262.011 C 306.949 262.025 312.01 262.021 317.07 262.011 C 319.488 262.008 321.905 262.011 324.322 262.021 C 327.708 262.031 331.093 262.015 334.479 261.993 L 337.473 262.017 C 344.235 261.936 349.607 260.499 355.661 257.475 C 360.094 254.611 363.579 251.25 366.333 246.733 C 367.539 244.359 368.649 241.938 369.661 239.475 L 371.661 239.475 L 372.438 241.163 C 375.745 247.753 380.006 251.842 385.661 256.475 L 387.661 258.475 C 382.349 269.861 374.348 279.493 364.138 286.889 C 352.152 294.564 339.4 298.939 325.164 299.84 C 320.576 300.025 315.994 300.007 311.404 299.971 C 309.719 299.971 308.034 299.973 306.349 299.976 C 302.851 299.976 299.354 299.965 295.857 299.942 C 291.422 299.913 286.987 299.916 282.552 299.929 C 279.084 299.936 275.616 299.928 272.148 299.915 C 270.515 299.911 268.881 299.911 267.248 299.915 C 253.705 299.932 239.34 299.447 227.224 292.725 L 225.218 291.665 C 219.919 288.789 215.132 285.533 210.661 281.475 L 208.591 279.647 C 201.957 273.442 196.828 266.008 193.661 257.475 L 195.235 256.373 C 201.865 251.593 206.232 247.055 209.661 239.475 M 269.497 157.139 L 274.927 157.119 C 278.705 157.108 282.482 157.103 286.259 157.104 C 291.062 157.104 295.864 157.077 300.667 157.043 C 304.401 157.02 308.135 157.017 311.869 157.018 C 313.638 157.015 315.407 157.006 317.176 156.991 C 331.121 156.879 343.317 158.657 355.911 165.163 L 357.936 166.196 C 364.021 169.435 368.907 173.482 373.661 178.475 L 375.833 180.694 C 380.589 185.772 384.547 191.236 387.661 197.475 L 387.661 199.475 C 385.667 200.818 383.667 202.151 381.661 203.475 C 377.979 206.806 375.305 210.282 372.661 214.475 L 370.661 217.475 L 369.595 215.534 C 366.3 209.761 363.047 204.491 357.661 200.475 C 348.944 195.646 341.625 194.326 331.813 194.298 L 328.82 194.278 C 325.556 194.259 322.292 194.246 319.028 194.237 L 315.64 194.224 C 309.72 194.204 303.801 194.189 297.882 194.18 C 291.786 194.169 285.69 194.134 279.594 194.095 C 274.891 194.068 270.188 194.06 265.484 194.057 C 263.239 194.052 260.993 194.04 258.746 194.022 C 255.593 194.001 252.439 193.995 249.286 194.005 L 246.511 193.966 C 238.347 194.031 231.349 196.358 224.286 200.412 C 219.459 204.205 215.81 208.189 212.661 213.475 C 211.891 215.701 211.891 215.701 211.661 217.475 L 209.661 217.475 C 209.431 216.955 209.2 216.436 208.961 215.901 C 205.809 209.159 201.594 204.965 195.661 200.475 L 193.661 199.475 C 196.665 189.237 204.132 181.354 211.673 174.053 C 220.283 166.625 230.093 161.483 241.155 158.891 C 250.593 157.136 259.934 157.147 269.497 157.139" style="stroke-width: 1;"/>
  <path fill="#f0eff0" d="M 249.806 204.087 L 252.785 204.071 C 256.014 204.061 259.244 204.063 262.473 204.077 C 264.73 204.075 266.986 204.072 269.243 204.067 C 273.963 204.064 278.683 204.069 283.404 204.084 C 289.444 204.101 295.482 204.091 301.521 204.074 C 306.178 204.062 310.834 204.066 315.491 204.074 C 317.717 204.077 319.943 204.074 322.17 204.066 C 325.286 204.058 328.4 204.07 331.516 204.086 L 334.281 204.068 C 340.867 204.133 346.039 205.35 351.798 208.728 C 355.958 212.24 358.535 216.001 360.782 220.963 C 362.152 224.876 362.189 227.32 361.661 231.475 C 360.627 236.092 359.131 239.755 356.536 243.725 C 352.905 247.198 349.311 249.555 344.661 251.475 C 341.047 252.142 337.536 252.161 333.868 252.122 L 330.716 252.149 C 327.301 252.17 323.888 252.156 320.473 252.139 C 318.086 252.142 315.7 252.147 313.313 252.154 C 308.32 252.16 303.326 252.151 298.333 252.127 C 291.948 252.098 285.563 252.115 279.178 252.145 C 274.252 252.163 269.326 252.157 264.4 252.145 C 262.046 252.141 259.692 252.145 257.339 252.156 C 254.043 252.169 250.749 252.15 247.454 252.122 L 244.534 252.152 C 239.568 252.076 236.018 251.449 231.619 249.059 C 227.047 246.27 224.288 243.124 221.661 238.475 C 220.014 234.282 219.145 230.185 219.286 225.651 C 220.068 221.113 222.136 217.281 224.661 213.475 C 228.299 209.263 232.087 207.049 237.331 205.125 C 241.461 203.973 245.544 204.058 249.806 204.087" style="stroke-width: 1;"/>
  <path fill="#4f1c59" d="M 70.661 195.475 C 74.349 195.85 74.349 195.85 77.661 196.475 C 78.458 199.702 78.458 199.702 78.661 203.475 C 76.739 205.811 76.739 205.811 73.911 207.85 L 70.849 210.147 L 67.661 212.475 C 51.025 225.66 39.266 239.998 30.661 259.475 L 29.388 262.33 C 23.051 278.076 22.092 296.127 24.13 312.838 C 26.812 330.75 35.387 347.486 46.388 361.678 C 50.323 366.52 54.371 371.231 58.829 375.6 C 60.661 377.475 60.661 377.475 61.661 379.475 C 62.543 389.883 58.986 399.723 55.661 409.475 L 57.661 408.681 C 60.681 407.484 63.702 406.291 66.724 405.1 L 69.87 403.85 C 85.36 397.752 85.36 397.752 92.661 398.475 C 95.787 399.505 98.737 400.848 101.724 402.225 C 109.609 405.7 117.274 408.421 125.661 410.475 L 129.024 411.307 C 132.231 412.072 135.433 412.805 138.661 413.475 L 140.809 413.992 C 150.257 416.043 159.791 415.87 169.411 415.85 L 172.173 415.85 C 186.321 415.817 199.914 415.097 213.661 411.475 L 215.899 410.892 C 220.573 409.629 225.11 408.125 229.661 406.475 L 233.376 405.139 C 245.289 400.614 257.109 395.087 267.286 387.35 C 269.567 385.65 269.567 385.65 271.661 384.475 C 274.44 384.208 275.964 384.595 278.661 385.475 L 279.661 392.475 C 260.706 408.85 235.121 418.791 210.821 423.698 C 174.426 430.635 138.628 427.996 103.638 415.94 C 99.866 414.594 96.267 413.018 92.778 411.041 C 89.313 410.114 86.097 410.711 82.661 411.475 C 79.419 412.492 76.298 413.737 73.161 415.038 L 70.538 416.1 C 64.127 418.74 57.864 421.723 51.774 425.036 C 49.084 426.464 46.879 427.45 43.837 427.799 L 41.661 427.475 C 39.786 425.788 39.786 425.788 38.661 423.475 C 39.142 419.953 40.192 416.774 41.438 413.455 L 42.495 410.605 L 44.69 404.755 C 47.06 398.36 48.99 392.131 50.223 385.413 C 50.038 384.443 49.853 383.473 49.661 382.475 C 48.281 380.86 48.281 380.86 46.521 379.275 C 32.241 365.445 21.374 347.283 15.621 328.272 C 10.391 307.604 10.007 287.212 15.692 266.572 C 21.972 246.358 33.044 229.631 47.661 214.475 L 49.458 212.522 C 55.64 205.972 63.186 200.458 70.661 195.475" style="stroke-width: 1;"/>
  <path fill="#f0eff0" d="M 178.661 206.475 L 178.169 210.229 C 177.534 215.961 177.514 221.651 177.536 227.413 L 177.524 230.504 C 177.532 236.888 177.891 243.138 178.661 249.475 C 175.309 249.475 172.851 249.37 169.661 248.475 C 164.938 245.445 161.517 241.875 158.599 237.1 C 157.384 232.404 157.002 228.29 157.661 223.475 C 158.815 219.441 160.658 216.536 163.532 213.495 C 168.345 209.082 171.97 206.475 178.661 206.475 M 402.661 206.475 C 406.775 207.025 410.336 207.64 413.899 209.885 C 417.851 213.152 420.985 216.573 423.036 221.307 C 424.225 225.43 424.314 229.246 423.661 233.475 C 422.5 237.349 420.777 240.285 418.013 243.233 C 414.853 246.088 411.837 248.376 407.661 249.475 C 404.849 249.6 404.849 249.6 402.661 249.475 L 403.153 245.756 C 403.81 239.828 403.807 233.934 403.786 227.975 L 403.798 224.713 C 403.79 218.55 403.47 212.585 402.661 206.475" style="stroke-width: 1;"/>
  <path fill="#e3ab32" d="M 390.661 209.475 C 392.461 212.175 393.104 213.417 393.661 216.475 C 393.883 220.035 393.846 223.597 393.849 227.163 L 393.886 230.059 C 393.898 236.177 393.204 241.553 391.661 247.475 C 386.989 244.715 384.427 242.29 381.661 237.475 C 379.921 232.257 380.089 226.911 380.661 221.475 C 382.36 216.977 384.911 214.142 388.474 210.975 L 390.661 209.475 Z M 189.661 209.475 C 193.657 211.584 196.054 213.789 198.661 217.475 C 200.161 219.909 200.67 221.555 200.997 224.428 C 201.115 234.435 201.115 234.435 199.036 238.975 C 196.868 242.656 194.094 244.978 190.661 247.475 L 188.661 245.475 C 187.418 239.52 187.478 233.539 187.474 227.475 L 187.436 224.569 C 187.426 219.132 187.856 214.613 189.661 209.475" style="stroke-width: 1;"/>
  <path fill="#b2a3b1" d="M 292.621 96.182 C 294.661 96.475 294.661 96.475 297.599 98.35 C 299.661 100.475 299.661 100.475 300.661 102.475 C 300.974 105.225 300.974 105.225 300.661 108.475 C 298.786 111.788 298.786 111.788 296.661 114.475 C 294.039 115.785 291.6 115.855 288.701 115.835 C 286.661 115.475 286.661 115.475 283.723 113.1 C 281.661 110.475 281.661 110.475 280.661 108.475 C 280.349 105.663 280.349 105.663 280.661 102.475 C 284.131 97.27 286.333 96.125 292.621 96.182" style="stroke-width: 1;"/>
</svg>